<svg id="visual" viewBox="0 0 900 600" width="900" height="600" xmlns="http://www.w3.org/2000/svg" xmlns:xlink="http://www.w3.org/1999/xlink" version="1.1"><path d="M0 103L15 108C30 113 60 123 90 116C120 109 150 85 180 77C210 69 240 77 270 79C300 81 330 77 360 81C390 85 420 97 450 94C480 91 510 73 540 72C570 71 600 87 630 100C660 113 690 123 720 119C750 115 780 97 810 92C840 87 870 95 885 99L900 103L900 0L885 0C870 0 840 0 810 0C780 0 750 0 720 0C690 0 660 0 630 0C600 0 570 0 540 0C510 0 480 0 450 0C420 0 390 0 360 0C330 0 300 0 270 0C240 0 210 0 180 0C150 0 120 0 90 0C60 0 30 0 15 0L0 0Z" fill="#623d0f"></path><path d="M0 241L15 249C30 257 60 273 90 277C120 281 150 273 180 252C210 231 240 197 270 193C300 189 330 215 360 224C390 233 420 225 450 238C480 251 510 285 540 291C570 297 600 275 630 280C660 285 690 317 720 302C750 287 780 225 810 209C840 193 870 223 885 238L900 253L900 101L885 97C870 93 840 85 810 90C780 95 750 113 720 117C690 121 660 111 630 98C600 85 570 69 540 70C510 71 480 89 450 92C420 95 390 83 360 79C330 75 300 79 270 77C240 75 210 67 180 75C150 83 120 107 90 114C60 121 30 111 15 106L0 101Z" fill="#3f280b"></path><path d="M0 343L15 349C30 355 60 367 90 376C120 385 150 391 180 374C210 357 240 317 270 306C300 295 330 313 360 315C390 317 420 303 450 319C480 335 510 381 540 396C570 411 600 395 630 403C660 411 690 443 720 433C750 423 780 371 810 359C840 347 870 375 885 389L900 403L900 251L885 236C870 221 840 191 810 207C780 223 750 285 720 300C690 315 660 283 630 278C600 273 570 295 540 289C510 283 480 249 450 236C420 223 390 231 360 222C330 213 300 187 270 191C240 195 210 229 180 250C150 271 120 279 90 275C60 271 30 255 15 247L0 239Z" fill="#211400"></path><path d="M0 433L15 430C30 427 60 421 90 428C120 435 150 455 180 447C210 439 240 403 270 389C300 375 330 383 360 385C390 387 420 383 450 400C480 417 510 455 540 469C570 483 600 473 630 477C660 481 690 499 720 486C750 473 780 429 810 417C840 405 870 425 885 435L900 445L900 401L885 387C870 373 840 345 810 357C780 369 750 421 720 431C690 441 660 409 630 401C600 393 570 409 540 394C510 379 480 333 450 317C420 301 390 315 360 313C330 311 300 293 270 304C240 315 210 355 180 372C150 389 120 383 90 374C60 365 30 353 15 347L0 341Z" fill="#1e1200"></path><path d="M0 601L15 601C30 601 60 601 90 601C120 601 150 601 180 601C210 601 240 601 270 601C300 601 330 601 360 601C390 601 420 601 450 601C480 601 510 601 540 601C570 601 600 601 630 601C660 601 690 601 720 601C750 601 780 601 810 601C840 601 870 601 885 601L900 601L900 443L885 433C870 423 840 403 810 415C780 427 750 471 720 484C690 497 660 479 630 475C600 471 570 481 540 467C510 453 480 415 450 398C420 381 390 385 360 383C330 381 300 373 270 387C240 401 210 437 180 445C150 453 120 433 90 426C60 419 30 425 15 428L0 431Z" fill="#1a1000"></path></svg>