<?xml version="1.0" standalone="no"?>
<!DOCTYPE svg PUBLIC "-//W3C//DTD SVG 20010904//EN"
 "http://www.w3.org/TR/2001/REC-SVG-20010904/DTD/svg10.dtd">
<svg version="1.0" xmlns="http://www.w3.org/2000/svg"
 width="700.000000pt" height="700.000000pt" viewBox="0 0 700.000000 700.000000"
 preserveAspectRatio="xMidYMid meet">
<metadata>
Created by potrace 1.14, written by Peter Selinger 2001-2017
</metadata>
<g transform="translate(0.000000,700.000000) scale(0.100000,-0.100000)"
fill="#000000" stroke="none">
<path d="M2336 6411 c-2 -3 -3 -236 -3 -517 l0 -511 291 1 291 1 1 513 c0 357
-3 512 -10 514 -31 4 -568 3 -570 -1z"/>
<path d="M3964 5514 l-302 -304 206 -206 206 -205 308 308 308 308 -202 202
c-112 112 -207 202 -213 202 -5 -1 -146 -138 -311 -305z"/>
<path d="M684 5550 c-109 -111 -198 -204 -197 -209 1 -6 471 -479 587 -590
l35 -34 200 201 c111 110 201 205 201 209 0 10 -604 616 -618 621 -5 1 -98
-88 -208 -198z"/>
<path d="M2485 4953 c-88 -10 -256 -47 -333 -74 -117 -41 -268 -118 -366 -187
-177 -123 -366 -343 -466 -541 -64 -129 -120 -307 -136 -433 -3 -24 -7 -49
-10 -57 -6 -19 -5 -287 1 -331 50 -331 178 -598 394 -822 l55 -58 -28 -57
c-63 -127 -109 -269 -124 -383 -9 -72 -8 -311 1 -375 71 -458 424 -856 882
-993 197 -59 105 -57 1855 -57 888 0 1640 4 1670 7 548 68 980 460 1096 997
25 114 27 342 3 462 -58 299 -197 536 -429 730 -135 114 -318 208 -488 252
-48 12 -92 26 -98 29 -6 4 -11 26 -12 49 -5 114 -54 327 -109 464 -153 388
-438 703 -816 899 -56 29 -113 57 -127 61 -14 4 -38 13 -55 20 -72 32 -248 78
-340 90 -130 18 -188 21 -298 19 -179 -3 -251 -12 -412 -55 -60 -16 -115 -31
-122 -32 -7 -2 -16 -6 -19 -10 -16 -15 -41 -4 -89 39 -66 60 -210 156 -304
204 -126 62 -271 107 -436 135 -44 7 -292 13 -340 8z m250 -587 c70 -10 98
-16 160 -38 56 -19 145 -61 172 -81 9 -7 -12 -33 -73 -96 -141 -141 -264 -318
-342 -491 -28 -61 -44 -98 -47 -110 0 -3 -11 -34 -23 -70 -29 -87 -60 -222
-68 -301 -4 -35 -8 -71 -10 -79 -1 -8 -3 -22 -3 -31 -1 -11 -14 -18 -43 -22
-89 -13 -258 -79 -369 -144 l-61 -35 -30 28 c-74 72 -168 223 -203 329 -66
198 -53 450 32 633 164 353 536 561 908 508z m1635 -290 c403 -38 702 -242
883 -602 54 -107 114 -297 132 -419 20 -129 23 -180 22 -324 l-1 -164 125 -2
c434 -8 747 -189 848 -491 23 -70 33 -132 35 -229 10 -345 -256 -636 -615
-672 -87 -9 -3090 -9 -3164 0 -214 26 -426 173 -520 362 -56 113 -69 173 -68
315 1 179 52 321 161 440 57 64 162 138 239 171 26 11 55 24 64 29 31 16 225
60 308 68 46 5 118 8 161 8 l79 -1 0 105 c0 106 8 252 16 280 2 8 7 38 10 66
6 55 11 86 19 112 3 9 8 31 11 49 19 116 119 350 197 466 217 320 599 476
1058 433z"/>
<path d="M4 4081 c-2 -2 -4 -134 -4 -293 l0 -288 350 0 350 0 0 293 0 292
-346 0 c-190 0 -348 -2 -350 -4z"/>
<path d="M775 2568 c-111 -98 -184 -162 -377 -332 -93 -81 -168 -150 -168
-154 0 -4 17 -26 38 -48 50 -56 87 -99 217 -253 61 -71 115 -130 121 -130 5
-1 23 12 40 27 16 15 60 54 99 87 59 51 104 90 159 140 6 6 63 55 126 110 63
54 126 110 140 123 14 14 35 31 48 39 12 9 22 19 22 25 0 8 -72 96 -159 193
-15 17 -65 75 -111 130 -82 97 -99 115 -110 114 -3 0 -41 -32 -85 -71z"/>
</g>
</svg>
